<?xml version="1.0" encoding="utf-8"?>
<!-- Generated by IcoMoon.io -->
<!DOCTYPE svg PUBLIC "-//W3C//DTD SVG 1.1//EN" "http://www.w3.org/Graphics/SVG/1.1/DTD/svg11.dtd">
<svg version="1.1" xmlns="http://www.w3.org/2000/svg" xmlns:xlink="http://www.w3.org/1999/xlink" width="34" height="32" viewBox="0 0 34 32">
<path d="M17.395 0h-0.002c-0.029 0-0.057 0-0.084 0-0.21 0.002-0.556 0.005-0.587 0.006-0.758 0-2.274 0.107-3.902 0.823-0.931 0.41-1.769 0.963-2.489 1.646-0.859 0.813-1.559 1.816-2.080 2.981-0.763 1.705-0.582 4.578-0.436 6.887l0.001 0.004c0.016 0.247 0.032 0.505 0.047 0.757-0.112 0.051-0.293 0.105-0.561 0.105-0.43 0-0.942-0.137-1.52-0.407-0.17-0.079-0.364-0.119-0.579-0.119-0.344 0-0.707 0.101-1.022 0.286-0.396 0.232-0.652 0.56-0.722 0.923-0.046 0.24-0.044 0.716 0.486 1.198 0.291 0.265 0.719 0.51 1.271 0.728 0.145 0.057 0.317 0.111 0.499 0.169 0.632 0.2 1.589 0.503 1.838 1.088 0.126 0.297 0.072 0.687-0.161 1.159-0.006 0.013-0.012 0.026-0.018 0.039-0.058 0.136-0.602 1.364-1.718 2.659-0.634 0.737-1.332 1.352-2.074 1.83-0.906 0.584-1.886 0.965-2.912 1.134-0.403 0.066-0.691 0.424-0.669 0.831 0.007 0.117 0.035 0.234 0.082 0.347 0 0.001 0.001 0.001 0.001 0.002 0.163 0.38 0.541 0.703 1.156 0.988 0.751 0.348 1.874 0.64 3.338 0.869 0.074 0.14 0.151 0.493 0.204 0.734 0.056 0.256 0.114 0.52 0.196 0.8 0.089 0.303 0.321 0.666 0.915 0.666 0.225 0 0.485-0.051 0.785-0.109 0.44-0.086 1.041-0.203 1.791-0.203 0.416 0 0.847 0.037 1.281 0.108 0.836 0.139 1.557 0.647 2.392 1.235 1.221 0.861 2.603 1.835 4.715 1.835 0.058 0 0.115-0.002 0.172-0.006 0.070 0.003 0.156 0.006 0.248 0.006 2.112 0 3.494-0.975 4.714-1.834l0.002-0.002c0.834-0.587 1.555-1.095 2.391-1.233 0.434-0.072 0.865-0.108 1.281-0.108 0.717 0 1.284 0.091 1.791 0.19 0.331 0.065 0.588 0.096 0.785 0.096l0.019 0h0.020c0.435 0 0.755-0.238 0.877-0.655 0.081-0.274 0.139-0.532 0.196-0.793 0.050-0.226 0.129-0.589 0.203-0.73 1.465-0.229 2.587-0.521 3.338-0.869 0.613-0.284 0.991-0.606 1.155-0.985 0.049-0.113 0.078-0.231 0.084-0.351 0.023-0.406-0.265-0.765-0.669-0.831-4.563-0.75-6.619-5.425-6.704-5.624-0.005-0.013-0.012-0.026-0.018-0.039-0.233-0.472-0.287-0.862-0.161-1.16 0.249-0.585 1.205-0.887 1.837-1.088 0.183-0.057 0.356-0.112 0.499-0.169 0.623-0.245 1.068-0.511 1.361-0.813 0.351-0.36 0.419-0.705 0.415-0.931-0.011-0.546-0.43-1.032-1.096-1.269-0.225-0.093-0.482-0.142-0.743-0.142-0.178 0-0.441 0.024-0.691 0.14-0.534 0.249-1.012 0.385-1.423 0.405-0.218-0.011-0.371-0.058-0.471-0.103 0.012-0.213 0.026-0.432 0.041-0.66l0.006-0.098c0.146-2.31 0.328-5.185-0.435-6.891-0.523-1.169-1.225-2.174-2.088-2.989-0.723-0.683-1.564-1.237-2.498-1.646-1.626-0.711-3.142-0.818-3.901-0.818z"></path>
</svg>
