<?xml version="1.0" encoding="utf-8"?>
<!-- Generated by IcoMoon.io -->
<!DOCTYPE svg PUBLIC "-//W3C//DTD SVG 1.1//EN" "http://www.w3.org/Graphics/SVG/1.1/DTD/svg11.dtd">
<svg version="1.1" xmlns="http://www.w3.org/2000/svg" xmlns:xlink="http://www.w3.org/1999/xlink" width="38" height="32" viewBox="0 0 38 32">
<path d="M38.4 3.788c-1.411 0.643-2.93 1.077-4.524 1.271 1.627-0.998 2.876-2.582 3.464-4.468-1.524 0.925-3.207 1.597-5.006 1.958-1.433-1.569-3.482-2.549-5.75-2.549-4.348 0-7.875 3.617-7.875 8.078 0 0.633 0.068 1.248 0.203 1.84-6.548-0.337-12.351-3.55-16.239-8.443-0.678 1.197-1.066 2.586-1.066 4.066 0 2.801 1.391 5.274 3.505 6.724-1.289-0.039-2.506-0.407-3.57-1.008v0.099c0 3.915 2.716 7.181 6.322 7.921-0.66 0.19-1.357 0.284-2.076 0.284-0.507 0-1.003-0.049-1.483-0.143 1.003 3.208 3.911 5.545 7.359 5.607-2.696 2.168-6.095 3.46-9.784 3.46-0.636 0-1.264-0.037-1.88-0.111 3.487 2.288 7.63 3.626 12.076 3.626 14.493 0 22.415-12.308 22.415-22.984 0-0.351-0.007-0.703-0.020-1.047 1.539-1.139 2.876-2.561 3.929-4.181z"></path>
</svg>
