<svg style="position: absolute; width: 0; height: 0;" width="0" height="0" version="1.1" xmlns="http://www.w3.org/2000/svg" xmlns:xlink="http://www.w3.org/1999/xlink">
<defs>
<symbol id="icon-facebook" viewBox="0 0 32 32">
<title>facebook</title>
<path class="path1" d="M17.092 32h-15.326c-0.976 0-1.766-0.791-1.766-1.766v-28.468c0-0.976 0.791-1.766 1.766-1.766h28.468c0.975 0 1.766 0.791 1.766 1.766v28.468c0 0.975-0.791 1.766-1.766 1.766h-8.154v-12.392h4.159l0.623-4.829h-4.782v-3.083c0-1.398 0.388-2.351 2.393-2.351l2.557-0.001v-4.319c-0.442-0.059-1.96-0.19-3.727-0.19-3.687 0-6.211 2.251-6.211 6.384v3.562h-4.17v4.829h4.17v12.392z"></path>
</symbol>
<symbol id="icon-twitter" viewBox="0 0 38 32">
<title>twitter</title>
<path class="path1" d="M38.4 3.788c-1.411 0.643-2.93 1.077-4.524 1.271 1.627-0.998 2.876-2.582 3.464-4.468-1.524 0.925-3.207 1.597-5.006 1.958-1.433-1.569-3.482-2.549-5.75-2.549-4.348 0-7.875 3.617-7.875 8.078 0 0.633 0.068 1.248 0.203 1.84-6.548-0.337-12.351-3.55-16.239-8.443-0.678 1.197-1.066 2.586-1.066 4.066 0 2.801 1.391 5.274 3.505 6.724-1.289-0.039-2.506-0.407-3.57-1.008v0.099c0 3.915 2.716 7.181 6.322 7.921-0.66 0.19-1.357 0.284-2.076 0.284-0.507 0-1.003-0.049-1.483-0.143 1.003 3.208 3.911 5.545 7.359 5.607-2.696 2.168-6.095 3.46-9.784 3.46-0.636 0-1.264-0.037-1.88-0.111 3.487 2.288 7.63 3.626 12.076 3.626 14.493 0 22.415-12.308 22.415-22.984 0-0.351-0.007-0.703-0.020-1.047 1.539-1.139 2.876-2.561 3.929-4.181z"></path>
</symbol>
<symbol id="icon-instagram" viewBox="0 0 32 32">
<title>instagram</title>
<path class="path1" d="M16 0c-4.345 0-4.89 0.018-6.597 0.096-1.703 0.078-2.866 0.348-3.884 0.744-1.052 0.409-1.944 0.956-2.834 1.845s-1.437 1.782-1.845 2.834c-0.396 1.018-0.666 2.181-0.744 3.884-0.078 1.707-0.096 2.251-0.096 6.597s0.018 4.89 0.096 6.597c0.078 1.703 0.348 2.866 0.744 3.884 0.409 1.052 0.956 1.944 1.845 2.834s1.782 1.437 2.834 1.845c1.018 0.395 2.181 0.666 3.884 0.744 1.707 0.078 2.251 0.096 6.597 0.096s4.89-0.018 6.597-0.096c1.703-0.078 2.866-0.348 3.884-0.744 1.052-0.409 1.944-0.956 2.834-1.845s1.437-1.782 1.845-2.834c0.395-1.018 0.666-2.181 0.744-3.884 0.078-1.707 0.096-2.251 0.096-6.597s-0.018-4.89-0.096-6.597c-0.078-1.703-0.348-2.866-0.744-3.884-0.409-1.052-0.956-1.944-1.845-2.834s-1.782-1.437-2.834-1.845c-1.018-0.396-2.181-0.666-3.884-0.744-1.707-0.078-2.251-0.096-6.597-0.096zM16 2.883c4.272 0 4.778 0.016 6.465 0.093 1.56 0.071 2.407 0.332 2.971 0.551 0.747 0.29 1.28 0.637 1.84 1.197s0.907 1.093 1.197 1.84c0.219 0.564 0.48 1.411 0.551 2.971 0.077 1.687 0.093 2.193 0.093 6.465s-0.016 4.778-0.093 6.465c-0.071 1.56-0.332 2.407-0.551 2.971-0.29 0.747-0.637 1.28-1.197 1.84s-1.093 0.907-1.84 1.197c-0.564 0.219-1.411 0.48-2.971 0.551-1.687 0.077-2.193 0.093-6.465 0.093s-4.778-0.016-6.465-0.093c-1.56-0.071-2.407-0.332-2.971-0.551-0.747-0.29-1.28-0.637-1.84-1.197s-0.907-1.093-1.197-1.84c-0.219-0.564-0.48-1.411-0.551-2.971-0.077-1.687-0.093-2.193-0.093-6.465s0.016-4.778 0.093-6.465c0.071-1.56 0.332-2.407 0.551-2.971 0.29-0.747 0.637-1.28 1.197-1.84s1.093-0.907 1.84-1.197c0.564-0.219 1.411-0.48 2.971-0.551 1.687-0.077 2.193-0.093 6.465-0.093zM16 7.784c-4.538 0-8.216 3.679-8.216 8.216s3.678 8.216 8.216 8.216c4.538 0 8.216-3.678 8.216-8.216s-3.678-8.216-8.216-8.216zM16 21.333c-2.946 0-5.333-2.388-5.333-5.333s2.388-5.333 5.333-5.333c2.945 0 5.333 2.388 5.333 5.333s-2.388 5.333-5.333 5.333zM26.461 7.459c0 1.060-0.86 1.92-1.92 1.92s-1.92-0.86-1.92-1.92 0.86-1.92 1.92-1.92c1.060 0 1.92 0.86 1.92 1.92z"></path>
</symbol>
<symbol id="icon-snapchat" viewBox="0 0 34 32">
<title>snapchat</title>
<path class="path1" d="M17.395 0h-0.002c-0.029 0-0.057 0-0.084 0-0.21 0.002-0.556 0.005-0.587 0.006-0.758 0-2.274 0.107-3.902 0.823-0.931 0.41-1.769 0.963-2.489 1.646-0.859 0.813-1.559 1.816-2.080 2.981-0.763 1.705-0.582 4.578-0.436 6.887l0.001 0.004c0.016 0.247 0.032 0.505 0.047 0.757-0.112 0.051-0.293 0.105-0.561 0.105-0.43 0-0.942-0.137-1.52-0.407-0.17-0.079-0.364-0.119-0.579-0.119-0.344 0-0.707 0.101-1.022 0.286-0.396 0.232-0.652 0.56-0.722 0.923-0.046 0.24-0.044 0.716 0.486 1.198 0.291 0.265 0.719 0.51 1.271 0.728 0.145 0.057 0.317 0.111 0.499 0.169 0.632 0.2 1.589 0.503 1.838 1.088 0.126 0.297 0.072 0.687-0.161 1.159-0.006 0.013-0.012 0.026-0.018 0.039-0.058 0.136-0.602 1.364-1.718 2.659-0.634 0.737-1.332 1.352-2.074 1.83-0.906 0.584-1.886 0.965-2.912 1.134-0.403 0.066-0.691 0.424-0.669 0.831 0.007 0.117 0.035 0.234 0.082 0.347 0 0.001 0.001 0.001 0.001 0.002 0.163 0.38 0.541 0.703 1.156 0.988 0.751 0.348 1.874 0.64 3.338 0.869 0.074 0.14 0.151 0.493 0.204 0.734 0.056 0.256 0.114 0.52 0.196 0.8 0.089 0.303 0.321 0.666 0.915 0.666 0.225 0 0.485-0.051 0.785-0.109 0.44-0.086 1.041-0.203 1.791-0.203 0.416 0 0.847 0.037 1.281 0.108 0.836 0.139 1.557 0.647 2.392 1.235 1.221 0.861 2.603 1.835 4.715 1.835 0.058 0 0.115-0.002 0.172-0.006 0.070 0.003 0.156 0.006 0.248 0.006 2.112 0 3.494-0.975 4.714-1.834l0.002-0.002c0.834-0.587 1.555-1.095 2.391-1.233 0.434-0.072 0.865-0.108 1.281-0.108 0.717 0 1.284 0.091 1.791 0.19 0.331 0.065 0.588 0.096 0.785 0.096l0.019 0h0.020c0.435 0 0.755-0.238 0.877-0.655 0.081-0.274 0.139-0.532 0.196-0.793 0.050-0.226 0.129-0.589 0.203-0.73 1.465-0.229 2.587-0.521 3.338-0.869 0.613-0.284 0.991-0.606 1.155-0.985 0.049-0.113 0.078-0.231 0.084-0.351 0.023-0.406-0.265-0.765-0.669-0.831-4.563-0.75-6.619-5.425-6.704-5.624-0.005-0.013-0.012-0.026-0.018-0.039-0.233-0.472-0.287-0.862-0.161-1.16 0.249-0.585 1.205-0.887 1.837-1.088 0.183-0.057 0.356-0.112 0.499-0.169 0.623-0.245 1.068-0.511 1.361-0.813 0.351-0.36 0.419-0.705 0.415-0.931-0.011-0.546-0.43-1.032-1.096-1.269-0.225-0.093-0.482-0.142-0.743-0.142-0.178 0-0.441 0.024-0.691 0.14-0.534 0.249-1.012 0.385-1.423 0.405-0.218-0.011-0.371-0.058-0.471-0.103 0.012-0.213 0.026-0.432 0.041-0.66l0.006-0.098c0.146-2.31 0.328-5.185-0.435-6.891-0.523-1.169-1.225-2.174-2.088-2.989-0.723-0.683-1.564-1.237-2.498-1.646-1.626-0.711-3.142-0.818-3.901-0.818z"></path>
</symbol>
</defs>
</svg>
